<?xml version="1.0" encoding="iso-8859-1"?>
<!-- Uploaded to: SVG Repo, www.svgrepo.com, Generator: SVG Repo Mixer Tools -->
<!DOCTYPE svg PUBLIC "-//W3C//DTD SVG 1.1//EN" "http://www.w3.org/Graphics/SVG/1.1/DTD/svg11.dtd">
<svg fill="#000000" height="800px" width="800px" version="1.1" id="Capa_1" xmlns="http://www.w3.org/2000/svg" xmlns:xlink="http://www.w3.org/1999/xlink" 
	 viewBox="0 0 429.43 429.43" xml:space="preserve">
<path d="M420.982,203.77l-68.793-32.627c-2.876-1.364-5.292-2.027-7.387-2.027c-2.901,0-5.274,1.317-6.511,3.614
	c-2.463,4.575,1.113,9.996,2.288,11.777l8.382,12.708H154.748l-27.059-18.282c-1.274-0.861-3.091-1.417-4.628-1.417H99.168
	l-6.06-4.094c-2.21-1.493-5.617-2.536-8.285-2.536H6.829c-2.597,0-4.845,1.229-6.015,3.287s-1.074,4.619,0.256,6.851l20,33.54
	c0.013,0.089,0.013,0.216,0,0.305L1.069,248.408c-1.329,2.231-1.425,4.792-0.255,6.85c1.169,2.058,3.418,3.287,6.015,3.287h77.995
	c2.668,0,6.075-1.043,8.285-2.536l6.06-4.094h23.893c1.537,0,3.354-0.556,4.628-1.417l27.058-18.282H348.96l-8.382,12.708
	c-1.175,1.781-4.75,7.202-2.288,11.777c1.237,2.296,3.61,3.614,6.511,3.614c2.095,0,4.511-0.663,7.387-2.027l68.793-32.627
	c7.351-3.486,8.448-8.354,8.448-10.945S428.332,207.256,420.982,203.77z"/>
</svg>